<svg xmlns="http://www.w3.org/2000/svg" width="20" height="20" viewBox="0 0 20 20"><defs><style>g{display:none}g:target{display:inline}</style></defs><g id="search" fill="none" stroke="#bdc3c7" stroke-linecap="round"><circle r="5" cy="8" cx="8" stroke-width="2.5" stroke-linejoin="round"/><path d="M12 12l5 5" fill-rule="evenodd" stroke-width="3"/></g><g id="clean" fill="none" fill-rule="evenodd" stroke="#bdc3c7" stroke-width="3" stroke-linecap="round"><path id="path4165" d="M7 7l6 6"/><path id="path4165-0" d="M13 7l-6 6"/></g><g id="file" fill="#2c3e50" fill-rule="evenodd"><path d="M4 7s0-1 1-1h6v4s0 1 1 1h4v10s0 1-1 1H5c-1 0-1-1-1-1z" transform="translate(0 -4)"/><path d="M12 7l3 3h-2c-1 0-1-1-1-1z" transform="translate(0 -4)"/></g><g id="directory" fill="#2c3e50" fill-rule="evenodd"><path d="M4 21c0 1 1 1 1 1h10s1 0 1-1l1-8s0-1-1-1H4c-1 0-1 1-1 1zM4 11V9s0-1 1-1h4c1 0 1 1 2 1h4c1 0 1 1 1 1v1z" transform="translate(0 -4)"/></g></svg>